HIERARCHY
ROOT Hips
{
 OFFSET 0.000000 0.000000 0.000000
 CHANNELS 6 Xposition Yposition Zposition Yrotation Xrotation Zrotation
 JOINT Chest
 {
  OFFSET 0.000000 9.585900 0.002600
  CHANNELS 3 Yrotation Xrotation Zrotation
  JOINT Chest2
  {
   OFFSET 0.000000 9.601200 -0.005300
   CHANNELS 3 Yrotation Xrotation Zrotation
   JOINT Chest3
   {
    OFFSET 0.000000 9.561800 0.000000
    CHANNELS 3 Yrotation Xrotation Zrotation
    JOINT Chest4
    {
     OFFSET 0.000000 9.552100 0.000000
     CHANNELS 3 Yrotation Xrotation Zrotation
     JOINT Neck
     {
      OFFSET 0.000000 14.453000 0.000000
      CHANNELS 3 Yrotation Xrotation Zrotation
      JOINT Head
      {
       OFFSET 0.000000 8.936500 -0.011300
       CHANNELS 3 Yrotation Xrotation Zrotation
       End Site
       {
        OFFSET 0.000000 17.073600 -0.006000
       }
      }
     }
     JOINT RightCollar
     {
      OFFSET -2.921100 9.558500 0.000000
      CHANNELS 3 Yrotation Xrotation Zrotation
      JOINT RightShoulder
      {
       OFFSET -13.519700 0.000000 0.000000
       CHANNELS 3 Yrotation Xrotation Zrotation
       JOINT RightElbow
       {
        OFFSET 0.000000 -29.696600 0.000000
        CHANNELS 3 Yrotation Xrotation Zrotation
        JOINT RightWrist
        {
         OFFSET 0.000000 -24.004700 0.000000
         CHANNELS 3 Yrotation Xrotation Zrotation
         End Site
         {
          OFFSET 0.000000 -17.728500 0.000000
         }
        }
       }
      }
     }
     JOINT LeftCollar
     {
      OFFSET 2.921100 9.558500 0.000000
      CHANNELS 3 Yrotation Xrotation Zrotation
      JOINT LeftShoulder
      {
       OFFSET 13.519700 0.000000 0.000000
       CHANNELS 3 Yrotation Xrotation Zrotation
       JOINT LeftElbow
       {
        OFFSET 0.000000 -29.696600 0.000000
        CHANNELS 3 Yrotation Xrotation Zrotation
        JOINT LeftWrist
        {
         OFFSET 0.000000 -24.004700 0.000000
         CHANNELS 3 Yrotation Xrotation Zrotation
         End Site
         {
          OFFSET 0.000000 -17.728500 0.000000
         }
        }
       }
      }
     }
    }
   }
  }
 }
 JOINT RightHip
 {
  OFFSET -7.771700 -0.012900 -0.001300
  CHANNELS 3 Yrotation Xrotation Zrotation
  JOINT RightKnee
  {
   OFFSET 0.000000 -40.869800 0.001200
   CHANNELS 3 Yrotation Xrotation Zrotation
   JOINT RightAnkle
   {
    OFFSET 0.000000 -39.717900 0.002100
    CHANNELS 3 Yrotation Xrotation Zrotation
    JOINT RightToe
    {
     OFFSET 0.000000 -4.965400 11.033500
     CHANNELS 3 Yrotation Xrotation Zrotation
     End Site
     {
      OFFSET 0.000000 -1.423100 5.872300
     }
    }
   }
  }
 }
 JOINT LeftHip
 {
  OFFSET 7.771700 -0.012900 -0.001300
  CHANNELS 3 Yrotation Xrotation Zrotation
  JOINT LeftKnee
  {
   OFFSET 0.000000 -40.869800 0.001200
   CHANNELS 3 Yrotation Xrotation Zrotation
   JOINT LeftAnkle
   {
    OFFSET 0.000000 -39.717900 0.002100
    CHANNELS 3 Yrotation Xrotation Zrotation
    JOINT LeftToe
    {
     OFFSET 0.000000 -4.965400 11.033500
     CHANNELS 3 Yrotation Xrotation Zrotation
     End Site
     {
      OFFSET 0.000000 -1.423100 5.872300
     }
    }
   }
  }
 }
}
MOTION
Frames: 11
Frame Time: 0.008333
-28.455583 58.023383 13.363862 178.573946 -53.975720 -4.165138 2.778737 22.430329 2.835882 1.410801 12.815828 1.462257 1.822872 16.041397 1.886480 1.408897 12.828217 1.460006 -0.299154 19.476159 4.744845 -2.012535 0.572307 8.754983 6.018450 5.106593 1.084657 -12.870692 -28.362249 8.692757 -75.634851 -40.831082 104.220546 0.304186 -27.636683 -51.807878 -10.397792 2.735564 -1.073868 3.600422 -28.423878 -3.747905 75.345847 -50.726767 -87.094694 13.750011 -24.847916 35.810629 2.495389 -17.406798 -2.987764 -33.181233 72.705369 -37.123744 6.320193 -12.638449 11.474848 0.031175 0.115985 0.042896 -6.919903 -15.057797 5.950403 85.043630 82.881653 83.456748 0.883764 -21.619767 -16.955634 -0.060927 0.014596 -0.011877
-28.451156 58.020622 13.361671 178.571148 -53.981994 -4.176189 2.795422 22.390518 2.861724 1.400692 12.848374 1.457692 1.825893 16.027322 1.890319 1.409157 12.826882 1.461962 -0.267573 19.475532 4.716346 -1.952217 0.557356 8.702204 6.009865 5.121577 1.085770 -12.859430 -28.370099 8.691142 -75.592310 -40.857864 104.194327 0.234917 -27.553594 -51.985354 -10.397256 2.750649 -1.079944 3.602728 -28.447841 -3.728621 75.145393 -50.720308 -87.008946 13.887858 -24.493414 35.595330 2.499597 -17.406012 -2.949121 -33.257903 72.705741 -37.203985 6.300042 -12.674146 11.468235 0.041522 0.111920 0.049485 -6.911383 -15.049424 5.979383 85.033957 82.898416 83.451624 0.872028 -21.628665 -16.957556 -0.048285 0.017681 -0.008634
-28.450979 58.018354 13.358642 178.569417 -53.995938 -4.163374 2.801298 22.383289 2.858058 1.411079 12.827501 1.464305 1.812976 16.047373 1.887663 1.426822 12.808760 1.465413 -0.260869 19.494428 4.699888 -1.879819 0.533320 8.638236 5.997726 5.108318 1.096122 -12.844681 -28.358178 8.677267 -75.513213 -40.933452 104.159171 0.180919 -27.546698 -52.306348 -10.416197 2.777356 -1.081079 3.607522 -28.475997 -3.707115 74.909812 -50.689856 -86.922366 14.031817 -24.242838 35.420163 2.508445 -17.391854 -2.954553 -33.252123 72.720076 -37.205262 6.303971 -12.744261 11.454991 0.027576 0.133299 0.058914 -6.900973 -15.037777 5.974156 85.038649 82.904079 83.451723 0.863367 -21.632175 -16.950581 -0.046684 0.019246 -0.007273
-28.451252 58.017422 13.354711 178.584576 -54.021149 -4.162241 2.795950 22.393638 2.851782 1.416265 12.823493 1.467538 1.814630 16.047368 1.889408 1.428868 12.810751 1.467828 -0.266985 19.504551 4.694362 -1.782605 0.495829 8.552060 5.996492 5.098112 1.098462 -12.835136 -28.362561 8.667843 -75.455465 -41.024415 104.145184 0.146828 -27.563500 -52.720891 -10.387806 2.744770 -1.072108 3.572348 -28.447185 -3.701256 74.689337 -50.647810 -86.888224 14.166416 -24.101015 35.303492 2.509533 -17.368131 -2.961421 -33.232601 72.747674 -37.195651 6.284462 -12.780204 11.460541 0.022560 0.117576 0.052561 -6.898689 -15.014221 5.963838 85.049451 82.901600 83.459380 0.848255 -21.635970 -16.944886 -0.045242 0.020666 -0.006039
-28.451501 58.017388 13.350367 178.599630 -54.053944 -4.161854 2.787246 22.422312 2.842491 1.430409 12.810650 1.473728 1.810836 16.046950 1.892437 1.437063 12.813617 1.466825 -0.241636 19.493660 4.673006 -1.717264 0.473722 8.494149 5.998207 5.086972 1.101091 -12.827380 -28.364658 8.658334 -75.433592 -41.119283 104.141447 0.138144 -27.583652 -53.185998 -10.381781 2.736772 -1.069773 3.551435 -28.446153 -3.686106 74.480364 -50.575152 -86.884972 14.275599 -24.051300 35.247038 2.532293 -17.342571 -2.954570 -33.281834 72.774081 -37.243355 6.245867 -12.804187 11.466733 0.044078 0.093144 0.054248 -6.894990 -14.981929 5.952327 85.040792 82.900772 83.446125 0.844867 -21.635375 -16.941782 -0.043945 0.020734 -0.005107
-28.453123 58.016079 13.347068 178.617118 -54.078153 -4.155835 2.784077 22.428157 2.832894 1.436850 12.814701 1.476663 1.837556 16.032210 1.900137 1.418236 12.830873 1.469436 -0.215525 19.478004 4.651364 -1.653904 0.450036 8.439264 5.990477 5.078526 1.105719 -12.805883 -28.371284 8.645834 -75.434954 -41.231663 104.148011 0.149462 -27.619510 -53.678690 -10.377179 2.724745 -1.067969 3.522418 -28.468685 -3.644711 74.264257 -50.457694 -86.868721 14.350967 -24.083320 35.243861 2.540193 -17.318303 -2.965527 -33.259124 72.800168 -37.230022 6.227501 -12.845120 11.464427 0.056247 0.057191 0.048573 -6.894280 -14.959616 5.931834 85.006254 82.901399 83.405351 0.842860 -21.634170 -16.937048 -0.044227 0.023448 -0.005285
-28.455685 58.014284 13.344356 178.633107 -54.098773 -4.143250 2.783660 22.433684 2.820199 1.441142 12.816676 1.479108 1.834467 16.037514 1.900667 1.420837 12.832330 1.470499 -0.136467 19.445068 4.602006 -1.633601 0.434235 8.423837 5.975302 5.077934 1.110637 -12.714580 -28.405676 8.619756 -75.492773 -41.373849 104.147549 0.178127 -27.660910 -54.170069 -10.364938 2.709189 -1.069765 3.486350 -28.492944 -3.598919 74.050524 -50.344016 -86.850005 14.394201 -24.179866 35.290395 2.548606 -17.295862 -2.981065 -33.239950 72.832358 -37.227489 6.208136 -12.912707 11.455143 0.038980 0.070168 0.061784 -6.891651 -14.941679 5.904891 84.978341 82.895102 83.374545 0.839132 -21.634202 -16.944187 -0.042588 0.027613 0.001654
-28.457025 58.012993 13.341781 178.651245 -54.121632 -4.139758 2.785056 22.441624 2.816997 1.446878 12.818071 1.481147 1.815863 16.048820 1.897512 1.421726 12.832820 1.470843 -0.069760 19.418336 4.563315 -1.588009 0.406732 8.384271 5.998298 5.054360 1.111775 -12.704241 -28.393943 8.607881 -75.532499 -41.530321 104.185813 0.223198 -27.693573 -54.639748 -10.346872 2.695055 -1.073987 3.407520 -28.573782 -3.511642 73.833471 -50.225769 -86.756029 14.412158 -24.309405 35.376106 2.551930 -17.273118 -2.990904 -33.264439 72.845698 -37.258524 6.199663 -12.940310 11.459774 0.036158 0.070309 0.060753 -6.887539 -14.920626 5.889018 84.936746 82.896526 83.331481 0.829181 -21.633455 -16.940651 -0.038304 0.028721 0.003874
-28.458916 58.011303 13.339798 178.671266 -54.139979 -4.134531 2.807338 22.428106 2.831197 1.429762 12.836735 1.473725 1.819259 16.050261 1.896846 1.426532 12.834787 1.472608 -0.040755 19.402421 4.540902 -1.530695 0.372275 8.332064 6.001819 5.039075 1.116303 -12.729475 -28.375203 8.608818 -75.569690 -41.706302 104.241108 0.278808 -27.714509 -55.069651 -10.372927 2.698845 -1.068360 3.352466 -28.619066 -3.467327 73.646313 -50.190341 -86.696731 14.410681 -24.438542 35.479063 2.550623 -17.254250 -3.009050 -33.278426 72.853832 -37.276744 6.200204 -12.962443 11.460612 0.032585 0.070271 0.058676 -6.886164 -14.906532 5.870542 84.900658 82.902747 83.288956 0.823906 -21.628604 -16.933774 -0.038379 0.027310 0.001100
-28.460051 58.008876 13.338780 178.685363 -54.150619 -4.129238 2.817003 22.426340 2.835889 1.433778 12.837920 1.475734 1.819349 16.049960 1.896550 1.470972 12.830017 1.477229 -0.046583 19.391161 4.523424 -1.476195 0.335559 8.279163 5.952382 5.023791 1.130020 -12.691914 -28.358140 8.589941 -75.652837 -41.919570 104.294121 0.336151 -27.721657 -55.444708 -10.406528 2.687410 -1.065171 3.248749 -28.640365 -3.412482 73.464571 -50.193850 -86.621419 14.390526 -24.543500 35.584744 2.564083 -17.245377 -3.018533 -33.331997 72.859342 -37.324846 6.196923 -12.992426 11.454873 0.036658 0.067818 0.061270 -6.881976 -14.901771 5.855321 84.896218 82.903948 83.283622 0.817312 -21.623520 -16.931456 -0.040598 0.025647 0.003805
-28.460705 58.007040 13.337703 178.703817 -54.162518 -4.130571 2.813726 22.433356 2.832929 1.451186 12.831878 1.484474 1.824933 16.053187 1.900082 1.455295 12.832992 1.477823 -0.017443 19.375007 4.503011 -1.409042 0.292695 8.212910 5.995871 4.987031 1.131418 -12.638051 -28.329058 8.565811 -75.791638 -42.179305 104.344419 0.390497 -27.710455 -55.753918 -10.391354 2.663603 -1.069166 3.135289 -28.657500 -3.357424 73.286868 -50.234575 -86.533616 14.358477 -24.610894 35.681484 2.568314 -17.235613 -3.018031 -33.379216 72.866931 -37.374346 6.175353 -13.009105 11.459339 0.041327 0.054915 0.057008 -6.879030 -14.895436 5.843798 84.889501 82.904781 83.277362 0.810604 -21.617761 -16.928506 -0.043685 0.024020 0.008374
